PathFileType	4	(X/Y/Z)	5_coords_data.trc
DataRate	CameraRate	NumFrames	NumMarkers	Units	OrigDataRate	OrigDataStartFrame	OrigNumFrames
30.0	30.0	6	21	m	30.0	20	77
Frame#	Time	THUMB_TIP	THUMB_IP	THUMB_MCP	THUMB_CMC	INDEX_TIP	INDEX_DIP	INDEX_PIP	INDEX_MCP	MIDDLE_TIP	MIDDLE_DIP	MIDDLE_PIP	MIDDLE_MCP	RING_TIP	RING_DIP	RING_PIP	RING_MCP	PINKY_TIP	PINKY_DIP	PINKY_PIP	PINKY_MCP	WRIST
X1	Y1	Z1	X2	Y2	Z2	X3	Y3	Z3	X4	Y4	Z4	X5	Y5	Z5	X6	Y6	Z6	X7	Y7	Z7	X8	Y8	Z8	X9	Y9	Z9	X10	Y10	Z10	X11	Y11	Z11	X12	Y12	Z12	X13	Y13	Z13	X14	Y14	Z14	X15	Y15	Z15	X16	Y16	Z16	X17	Y17	Z17	X18	Y18	Z18	X19	Y19	Z19	X20	Y20	Z20	X21	Y21	Z21
18	0.6333333333333304	0.5202153546479709	-0.008089976916916153	-0.10099530462877568	0.5102971139429052	-0.009753745415088666	-0.1216559042256139	0.4792208927962456	-0.01151112640700569	-0.12166545897064697	0.4722755493371593	-0.021754709026493457	-0.07880847331657817	0.4928721016783352	-0.022272953419030683	-0.0997348964686801	0.5020767516500143	-0.009240282413371492	-0.10830367148948172	0.5156256187682687	0.008867654370460443	-0.11928277246563793	0.49012083717243726	0.03869869065707743	-0.10275245232912893	0.49045034632829243	-0.014979799668722649	-0.09009378342636162	0.5076551602612913	-0.010236681445168205	-0.0931755373179417	0.5275361030485364	0.008986620875825801	-0.10237457595064478	0.5012424714079641	0.04060126941692377	-0.08490154376465173	0.49830925564681117	-0.013722512028165768	-0.07256894995300937	0.5142419957185073	-0.008164735557419811	-0.07891394124606824	0.5341795227981908	0.005495911737496084	-0.0849190814135242	0.5133390321852688	0.036279868571448604	-0.0690211951811324	0.5037535514074747	-0.018992502144873802	-0.06004168635554602	0.5183294285559387	-0.023663817613916782	-0.06770475474500753	0.5355837552337002	-0.012091930484882218	-0.07073652950081918	0.5234844428355089	0.018214325272835508	-0.05537355607642061	0.462283081001861	-0.023011742144276925	-0.051989820119430985
19	0.6666666666666637	0.5202308386383956	-0.008105161335483002	-0.10101894999604558	0.5102947159585878	-0.009752313989146	-0.12167228760107542	0.4792157899442677	-0.011461183155119126	-0.12166115341919258	0.4722624966507448	-0.021733476486910597	-0.07881232960709844	0.49284906122190664	-0.0222710427839653	-0.09979221705095287	0.5020699375390317	-0.00920853001963362	-0.10829787400535433	0.5156369888387989	0.008884116177685808	-0.11927972747405914	0.4901422436342633	0.03871076416651742	-0.10272602303347765	0.4907515894770307	-0.015717202415133635	-0.08970102898059301	0.5076563670999389	-0.010233619865597565	-0.09318797835539698	0.5275709270264392	0.008962565728828475	-0.10237091424530595	0.5013078258493532	0.04058217760160154	-0.08486098613073789	0.49820338486306515	-0.013473795131463961	-0.07261099735078091	0.5142544747017799	-0.008220892409480318	-0.07891730593686216	0.534209415400859	0.0054147739748781065	-0.08492138146526126	0.5134178648844085	0.03621858864843375	-0.06899789997787512	0.5035385865363468	-0.019533374338919995	-0.06018548802659618	0.5183458255353961	-0.023695293631373904	-0.0676970857945904	0.535621335482228	-0.012158649549310008	-0.07074251161057962	0.5235345178915973	0.018141235215135887	-0.05535715250550387	0.4622830810018609	-0.023011742144276925	-0.051989820119430985
20	0.6999999999999968	0.520251683738028	-0.008147526469845623	-0.10099494800832387	0.510323859187207	-0.00975716981706376	-0.12165523232347489	0.47924234665575105	-0.011418362464910792	-0.12165101999824464	0.47225617061930236	-0.021717114720407937	-0.07881389770498545	0.4928596111121495	-0.022261087986580663	-0.0997980870877758	0.5021201580955581	-0.009225972052854137	-0.10830267538835742	0.5156671405243979	0.008874343476659052	-0.11929665909785843	0.490194272650869	0.03870099244701897	-0.10270931128403775	0.4910436765471421	-0.01633133211674742	-0.08941943725859383	0.5076765580641068	-0.010249977703558844	-0.09320947432223856	0.5276143279177576	0.008926206803096526	-0.10238383157654088	0.501383431621561	0.040550036679964596	-0.08483329356720644	0.4981344350330338	-0.013289538969991521	-0.07265912569790411	0.5142730617216822	-0.00829241998112129	-0.0789498752888135	0.5342532556219681	0.005311115683858114	-0.08494284184291748	0.5135113254821747	0.03613759466521349	-0.06899852117102993	0.5034032190710171	-0.020092307288844147	-0.060284499770911895	0.5183892315387135	-0.023727330784109157	-0.06771457611688031	0.5356847858504429	-0.01222426770483065	-0.07077322938983534	0.5235894003630931	0.01805903519181118	-0.05536197809142798	0.4622830810018609	-0.023011742144276925	-0.051989820119431
21	0.7333333333333302	0.5202915868686087	-0.008184036376164938	-0.10099023766016685	0.5103591272649357	-0.009781356864802637	-0.12164925054747543	0.47927497924241647	-0.011392481517327302	-0.12164488383864987	0.4722482513154945	-0.021697421819250495	-0.07881588314969118	0.4927363275617479	-0.022216608318327058	-0.09986184960973817	0.5021342271006601	-0.009235732699816923	-0.10829845748454671	0.5156705809185322	0.008865985575948643	-0.11930321798999159	0.49023473229232095	0.03870526855494805	-0.10268181943380282	0.4913112724631319	-0.016848258328260646	-0.08917750559062274	0.5077095286208146	-0.010318041852317994	-0.09323379302673236	0.5276575522283607	0.008850629025087597	-0.10240156052741105	0.5014862021609455	0.04049982661625695	-0.0848079068851475	0.4981434360824526	-0.013349454679939976	-0.07271767500581934	0.5142826992118326	-0.008335187499888708	-0.07899312800044062	0.5342961986416467	0.005227822961331952	-0.08496678406700908	0.5135917817220355	0.03606756962067137	-0.06899938039557008	0.5032993538348752	-0.020463487624162058	-0.060397985117504424	0.5184024737093593	-0.023770735200297932	-0.06774358812386849	0.5357184474035631	-0.012301497104274639	-0.07081371051855789	0.5236423398448905	0.017978366096039533	-0.055380598006765924	0.4622830810018609	-0.023011742144276925	-0.05198982011943097
22	0.7666666666666633	0.5204078205997094	-0.008161489059753335	-0.10103689921497272	0.510385564844283	-0.009808320172632112	-0.12164860309549838	0.4792989117414176	-0.011370303512561963	-0.1216342188022992	0.4722649071552606	-0.021686656982958907	-0.07880916036035718	0.4926820599804078	-0.022168765019356496	-0.09987311229245302	0.502170901154693	-0.009253755158505794	-0.10830901256825771	0.5156943437472306	0.008860071885356646	-0.11930972178500246	0.4902857421323633	0.03870406044510777	-0.10265513068157353	0.49155229161633884	-0.017239284203128702	-0.08893692497431308	0.5077371735437082	-0.010357651361950437	-0.09326043355373434	0.5277011493942425	0.008801283499666801	-0.10241381725636522	0.5015671447992834	0.04046170006679606	-0.08478487095698284	0.4982891825812281	-0.013850661268688613	-0.07273463874837541	0.5142815653154718	-0.008385421504028434	-0.07900957689916573	0.5343238568847088	0.005136128588004607	-0.08498069159931407	0.5136721776921068	0.03599992830448673	-0.06899148125024632	0.5032274626841854	-0.020716348479724478	-0.060489055629825955	0.5184132131990649	-0.023812753811110587	-0.06775577809071544	0.5357486228270163	-0.012377118767604611	-0.07084152648986664	0.5236911403103056	0.01790392700055765	-0.05539617658947024	0.4622830810018609	-0.023011742144276925	-0.051989820119430985
23	0.7999999999999965	0.5204319068277651	-0.00819659001675932	-0.10104526408191228	0.5104211202861877	-0.009826233459055755	-0.12166390649769601	0.47933278211889696	-0.011354017844260267	-0.12163066693553307	0.4722572798630513	-0.021663781856188113	-0.07881085804004775	0.492555154543588	-0.022132835369188975	-0.09994144178838019	0.5022084080742473	-0.009299533821712225	-0.10831527410484983	0.5157096970458288	0.008827455358981218	-0.11932151289695644	0.4903497812006339	0.03869358739519502	-0.10263244702974618	0.4916970635113034	-0.01746918439586298	-0.08875970974245592	0.5077458431597779	-0.010403046463401955	-0.09328810532081946	0.5277264268661748	0.00874291910161984	-0.10243238371414626	0.5016455318436329	0.04042449904670864	-0.08476285265058653	0.498297363500417	-0.013945508679530483	-0.07274566204711297	0.5142794661022326	-0.00845107761241981	-0.07902129935927585	0.5343386386490452	0.005043915532379817	-0.08499580651543696	0.5137439064735361	0.035937577709350466	-0.06899082360653447	0.5031505037488281	-0.020938374042959285	-0.06056505764457343	0.5184005089803592	-0.02385117160028538	-0.06777289718415182	0.5357546075310933	-0.012446122034203921	-0.07086678258710898	0.5237307615403975	0.017843134354921575	-0.05541131345848477	0.4622830810018609	-0.023011742144276925	-0.051989820119430985
